<?xml version="1.0" standalone="no"?>
<!DOCTYPE svg PUBLIC "-//W3C//DTD SVG 20010904//EN"
 "http://www.w3.org/TR/2001/REC-SVG-20010904/DTD/svg10.dtd">
<svg version="1.0" xmlns="http://www.w3.org/2000/svg"
 width="1243.000000pt" height="850.000000pt" viewBox="0 0 1243.000000 850.000000"
 preserveAspectRatio="xMidYMid meet">
<metadata>
Created by potrace 1.16, written by Peter Selinger 2001-2019
</metadata>
<g transform="translate(0.000000,850.000000) scale(0.100000,-0.100000)"
fill="#000000" stroke="none">
<path d="M7810 8273 c-159 -24 -240 -39 -338 -63 -911 -224 -2294 -962 -3389
-1810 -351 -271 -576 -472 -934 -829 -306 -306 -419 -437 -572 -662 -174 -254
-237 -436 -193 -552 30 -79 85 -112 207 -122 142 -13 269 28 544 176 149 81
505 299 705 432 112 75 113 71 10 -38 -177 -186 -346 -389 -380 -456 -22 -42
-26 -90 -10 -119 16 -30 92 -54 146 -45 71 10 225 95 481 264 126 83 233 151
236 151 4 0 -5 -18 -19 -40 -19 -28 -27 -55 -28 -86 -1 -58 19 -74 90 -74 68
0 149 42 351 180 84 58 208 143 275 190 101 69 118 78 95 50 -124 -154 -147
-195 -147 -259 0 -53 43 -91 104 -91 127 0 274 71 829 397 4 2 7 2 7 -1 0 -5
-179 -143 -268 -207 -61 -44 -579 -381 -707 -461 -459 -286 -1059 -605 -1455
-773 -622 -265 -1239 -452 -1645 -500 -150 -17 -442 -20 -583 -5 -418 46 -710
254 -793 567 -30 113 -30 317 0 472 133 682 726 1486 1691 2294 758 634 1808
1258 2687 1596 306 117 429 146 592 139 126 -6 161 -19 161 -60 0 -23 -22 -51
-110 -143 -68 -70 -110 -121 -110 -134 0 -28 14 -27 29 2 11 21 61 65 178 156
55 43 93 102 93 146 0 35 -63 102 -109 116 -24 7 -103 9 -222 7 l-184 -5 -145
-47 c-669 -221 -1528 -666 -2271 -1177 -492 -339 -873 -652 -1250 -1028 -682
-683 -1070 -1309 -1175 -1901 -25 -139 -23 -341 5 -445 96 -364 388 -597 852
-680 81 -14 143 -16 395 -13 345 5 457 20 799 108 588 151 1189 389 1825 721
737 385 1279 736 2185 1417 59 44 52 31 -31 -63 -187 -212 -252 -350 -202
-427 35 -53 159 -46 323 19 136 54 482 229 472 240 -3 2 -92 -22 -198 -53
-107 -31 -237 -69 -289 -84 -117 -34 -176 -44 -184 -32 -9 15 41 83 194 267
165 198 214 270 230 334 14 59 26 73 185 212 352 307 577 519 851 801 400 411
721 845 834 1131 92 232 112 514 46 645 -14 27 -52 74 -85 105 -122 112 -272
158 -516 156 -77 -1 -151 -3 -165 -6z m330 -143 c157 -25 254 -79 305 -171 28
-51 30 -60 29 -164 -2 -277 -128 -548 -444 -955 -311 -400 -836 -923 -1385
-1380 -75 -63 -137 -104 -195 -132 -221 -104 -411 -208 -835 -458 -210 -123
-487 -264 -506 -258 -16 5 75 110 279 323 163 170 222 243 222 276 0 21 -46
59 -72 59 -54 0 -393 -220 -833 -540 -88 -64 -173 -125 -190 -136 l-30 -19 15
21 c8 12 50 62 93 110 114 128 138 182 97 219 -51 47 -102 23 -420 -195 -423
-289 -614 -410 -648 -410 -35 0 110 166 485 555 410 427 418 436 388 481 -35
54 -48 49 -316 -132 -774 -525 -1176 -765 -1389 -834 -76 -24 -188 -32 -242
-17 -36 10 -45 45 -29 121 17 82 56 162 138 286 232 349 608 750 1108 1181
1239 1068 3059 2047 4040 2172 65 9 274 6 335 -3z"/>
<path d="M8186 4878 c-51 -45 -778 -1004 -1254 -1653 -827 -1130 -2298 -3035
-2342 -3035 -13 0 -13 1 5 43 19 46 19 53 -1 36 -30 -24 -74 -98 -74 -122 0
-41 25 -53 66 -34 94 45 259 235 836 962 614 774 1235 1586 1688 2205 172 236
217 295 208 270 -86 -220 -105 -292 -93 -356 21 -116 174 -136 316 -42 73 49
210 168 348 302 122 118 124 124 -89 -204 -81 -124 -187 -293 -237 -375 -487
-810 -860 -1455 -965 -1670 -130 -265 -184 -435 -157 -491 19 -38 57 -51 108
-36 46 14 118 96 438 500 l201 252 -5 -98 c-4 -65 -2 -106 6 -120 35 -65 156
-70 243 -9 48 33 246 228 438 429 40 43 75 76 78 73 3 -2 -12 -43 -33 -91 -51
-119 -70 -217 -53 -269 16 -50 45 -65 124 -65 51 0 69 5 119 35 72 44 172 124
289 232 49 46 91 81 93 79 2 -2 -8 -27 -21 -56 -34 -73 -53 -182 -38 -215 21
-47 96 -59 160 -26 65 34 202 151 392 336 214 208 266 256 255 235 -5 -8 -36
-58 -71 -110 -99 -151 -125 -206 -122 -259 4 -59 28 -73 118 -68 87 4 128 26
400 203 386 252 503 324 514 314 2 -3 -13 -57 -35 -120 -46 -135 -51 -202 -18
-244 62 -79 168 -75 385 15 55 22 227 103 384 179 293 142 766 358 832 379 34
11 55 27 47 36 -2 1 -70 -12 -150 -30 -160 -36 -334 -101 -654 -243 -104 -46
-255 -113 -333 -148 -202 -89 -312 -126 -370 -122 -45 3 -47 4 -44 32 2 15 19
76 38 133 43 134 45 184 5 224 -65 64 -110 44 -586 -266 -350 -229 -405 -259
-405 -222 0 13 67 116 293 449 69 103 129 199 133 213 5 20 1 32 -14 48 -49
48 -94 13 -622 -493 -268 -257 -394 -370 -413 -370 -33 0 43 159 188 395 134
218 188 290 436 591 540 651 747 923 818 1074 25 51 28 67 19 90 -11 34 -36
44 -83 36 -38 -7 -94 -69 -311 -341 -300 -375 -429 -549 -670 -905 -184 -273
-201 -294 -390 -500 -162 -177 -298 -310 -400 -393 -108 -87 -194 -117 -194
-68 0 37 58 185 124 316 122 239 280 467 566 815 564 685 1027 1289 1046 1365
8 33 -19 65 -55 65 -58 0 -102 -46 -338 -352 -70 -92 -212 -274 -314 -405
-200 -256 -478 -626 -574 -763 -120 -171 -368 -469 -644 -775 -283 -312 -398
-415 -463 -415 -25 0 -28 3 -28 36 0 87 114 344 229 516 73 110 82 135 55 162
-18 19 -28 20 -54 6 -20 -11 -248 -289 -530 -645 -249 -316 -421 -527 -426
-522 -5 5 110 265 172 390 106 211 713 1254 1002 1722 258 417 770 1144 1068
1517 96 119 118 156 108 183 -9 23 -53 30 -83 13 -14 -9 -124 -127 -244 -264
-518 -590 -912 -1001 -1056 -1102 -165 -116 -214 -89 -155 86 56 169 174 364
640 1057 152 226 280 421 285 434 6 16 6 28 -2 37 -18 22 -74 17 -103 -8z"/>
</g>
</svg>
