<!DOCTYPE svg PUBLIC "-//W3C//DTD SVG 20010904//EN" "http://www.w3.org/TR/2001/REC-SVG-20010904/DTD/svg10.dtd">
<svg version="1.0" xmlns="http://www.w3.org/2000/svg" width="1177px" height="816px" viewBox="0 0 11770 8160" preserveAspectRatio="xMidYMid meet">
<g id="layer101" fill="#868386" stroke="none">
 <path d="M0 4080 l0 -4080 5885 0 5885 0 0 4080 0 4080 -5885 0 -5885 0 0 -4080z"/>
 </g>
<g id="layer102" fill="#ffffff" stroke="none">
 <path d="M0 4080 l0 -4080 5885 0 5885 0 0 4080 0 4080 -5885 0 -5885 0 0 -4080z m4345 3822 c65 -40 259 -258 503 -566 75 -94 222 -279 327 -411 105 -132 220 -278 255 -325 35 -47 107 -139 160 -205 182 -227 923 -1209 1132 -1500 94 -132 135 -183 120 -150 -66 141 -86 208 -87 292 0 66 3 75 27 100 22 21 39 27 87 31 101 7 184 -42 387 -229 56 -52 125 -120 154 -152 29 -32 55 -56 57 -53 3 2 -65 110 -150 239 -198 298 -229 349 -371 594 -64 111 -155 264 -203 340 -48 76 -138 230 -201 343 -63 113 -162 286 -220 385 -158 268 -294 576 -296 673 -1 45 3 57 23 73 31 25 70 24 112 -4 33 -22 223 -251 451 -545 61 -78 112 -141 114 -139 2 2 -1 19 -6 38 -6 18 -10 62 -10 96 0 51 4 67 24 90 22 25 31 28 89 28 57 0 70 -4 123 -39 62 -40 247 -224 392 -389 48 -54 88 -94 90 -89 2 6 -8 32 -21 59 -37 74 -69 172 -74 234 -5 48 -2 59 19 84 21 24 34 29 84 33 50 3 67 0 111 -25 68 -37 187 -131 292 -232 47 -45 86 -81 88 -81 1 0 -6 15 -17 33 -31 55 -63 174 -56 212 8 38 45 65 91 65 63 0 194 -101 415 -321 74 -74 164 -162 199 -194 64 -59 64 -59 41 -20 -13 22 -27 42 -31 45 -14 11 -118 177 -133 214 -39 95 -11 141 85 139 83 -2 143 -33 417 -216 307 -206 442 -286 442 -264 0 3 -16 47 -35 98 -20 51 -38 118 -42 149 -5 50 -3 59 21 87 56 66 154 69 307 8 52 -20 240 -108 419 -195 179 -87 384 -184 455 -215 72 -32 184 -82 250 -111 66 -30 117 -54 113 -54 -4 0 -69 13 -145 29 -188 39 -393 117 -768 293 -268 125 -432 188 -493 188 -49 0 -52 -2 -52 -25 0 -13 16 -68 36 -122 46 -126 49 -186 10 -219 -34 -30 -66 -30 -138 0 -68 28 -86 39 -429 267 -310 205 -382 239 -334 156 10 -18 98 -149 195 -292 98 -143 180 -270 184 -282 11 -35 -10 -63 -48 -63 -23 0 -45 11 -77 37 -77 65 -287 261 -509 478 -208 203 -324 304 -336 292 -19 -19 56 -169 207 -411 114 -184 214 -314 462 -601 81 -94 382 -473 513 -646 97 -128 174 -261 174 -299 0 -31 -28 -60 -58 -60 -46 0 -85 36 -235 224 -348 433 -496 631 -684 916 -172 261 -169 257 -363 471 -252 277 -451 449 -521 449 -37 0 -37 -16 -3 -118 37 -112 129 -285 251 -474 104 -160 206 -293 473 -613 70 -82 173 -211 230 -285 57 -74 135 -173 174 -220 154 -184 431 -563 442 -605 9 -38 -12 -65 -52 -65 -49 0 -100 51 -247 244 -67 89 -189 247 -272 351 -240 302 -524 679 -622 825 -149 221 -772 928 -907 1030 -60 46 -112 61 -122 37 -23 -60 114 -376 228 -527 55 -73 61 -94 39 -122 -16 -19 -23 -21 -44 -13 -28 11 -37 22 -656 799 -123 155 -228 286 -233 291 -22 24 125 -316 187 -431 24 -44 70 -125 103 -180 32 -54 116 -202 187 -329 71 -126 166 -289 211 -362 45 -73 142 -235 215 -360 211 -365 472 -760 787 -1193 226 -310 337 -456 421 -555 57 -66 66 -106 30 -125 -45 -25 -63 -8 -353 329 -210 244 -539 602 -677 736 -207 201 -321 282 -373 262 -38 -15 -10 -129 71 -292 76 -151 137 -249 332 -535 92 -135 207 -307 255 -382 48 -75 114 -172 147 -215 32 -42 59 -87 59 -98 0 -29 -19 -45 -53 -45 -36 0 -59 24 -191 200 -55 74 -157 207 -227 295 -69 88 -184 239 -254 335 -71 96 -170 229 -220 295 -51 66 -134 179 -185 250 -51 72 -166 229 -256 350 -90 121 -217 292 -283 380 -111 149 -320 426 -655 867 -77 101 -212 275 -301 388 -88 113 -210 270 -270 350 -61 79 -179 230 -263 335 -209 258 -295 347 -247 255 28 -54 10 -57 -28 -5 -42 58 -53 91 -36 111 16 19 38 18 74 -4z m3010 -2168 c49 -32 50 -104 0 -104 -37 0 -55 10 -71 42 -14 27 -14 32 1 54 18 28 36 30 70 8z m-5484 -298 c347 -57 685 -152 1121 -317 753 -284 1616 -761 2412 -1332 137 -98 488 -360 554 -412 47 -39 39 -18 -18 45 -100 109 -198 248 -216 303 -45 143 56 187 266 114 52 -18 192 -84 310 -146 118 -62 206 -110 195 -106 -11 4 -104 31 -207 60 -103 30 -230 68 -283 84 -92 30 -165 40 -165 23 0 -18 66 -106 167 -224 176 -203 233 -289 233 -347 0 -33 -5 -29 175 -182 725 -622 1247 -1200 1479 -1641 96 -181 138 -338 139 -518 1 -151 -20 -209 -107 -295 -67 -67 -121 -96 -235 -127 -104 -28 -361 -30 -506 -4 -649 117 -1594 547 -2525 1148 -617 399 -1156 825 -1608 1272 -296 292 -443 465 -612 719 -172 258 -199 471 -68 538 59 31 198 38 288 15 157 -40 506 -235 963 -538 66 -43 122 -78 125 -78 4 0 -41 48 -99 108 -163 165 -315 346 -353 419 -50 98 23 170 145 144 76 -17 166 -67 409 -228 124 -82 232 -154 240 -158 8 -5 0 11 -18 35 -80 109 -5 198 122 145 68 -28 201 -113 369 -234 92 -67 171 -121 176 -121 5 0 14 -7 21 -16 13 -15 50 -38 50 -31 0 2 -14 20 -30 38 -78 86 -123 160 -128 209 -4 42 -1 52 21 74 22 22 35 26 86 26 102 0 249 -67 576 -262 244 -146 258 -150 90 -28 -55 40 -111 83 -125 96 -14 12 -36 29 -50 36 -14 7 -119 77 -235 154 -724 487 -1435 865 -2090 1112 -492 185 -890 290 -1233 323 -159 16 -449 6 -567 -19 -110 -24 -253 -77 -332 -123 -133 -78 -244 -224 -290 -383 -68 -233 11 -624 196 -981 457 -876 1554 -1865 2861 -2577 511 -279 1065 -517 1331 -573 141 -30 318 -15 335 29 10 26 -24 72 -106 146 -93 85 -106 106 -107 180 -1 30 1 44 3 30 3 -14 8 -32 11 -40 3 -8 7 -20 8 -27 7 -32 44 -66 163 -152 62 -44 102 -103 102 -149 0 -31 -55 -89 -98 -104 -25 -9 -87 -13 -187 -12 -143 0 -156 2 -271 37 -558 168 -1341 562 -2022 1016 -758 506 -1388 1076 -1802 1631 -232 310 -390 594 -474 850 -163 496 -114 834 159 1088 127 118 335 209 565 247 116 19 565 13 701 -9z"/>
 <path d="M3512 3928 c51 -62 233 -256 405 -431 171 -176 319 -334 328 -353 18 -38 10 -66 -25 -84 -27 -14 -56 -1 -158 72 -171 122 -749 505 -882 585 -191 114 -412 227 -502 257 -82 28 -173 34 -227 15 -29 -10 -31 -14 -31 -58 0 -106 68 -237 238 -464 152 -201 268 -331 498 -557 582 -572 1346 -1137 2159 -1595 918 -518 1731 -814 2175 -792 321 17 443 129 411 382 -21 175 -70 310 -169 475 -270 446 -730 941 -1438 1549 -159 136 -194 162 -257 186 -129 50 -342 167 -746 407 -204 122 -383 216 -456 241 -45 16 -47 16 -33 -1 8 -9 38 -46 68 -82 30 -36 129 -142 221 -235 197 -200 212 -231 137 -274 -50 -29 -140 26 -723 442 -77 55 -156 112 -175 127 -19 14 -53 37 -75 50 -35 21 -29 13 44 -65 141 -152 165 -201 120 -246 -42 -42 -99 -16 -359 166 -352 247 -587 395 -628 395 -7 0 29 -51 80 -112z"/>
 </g>

</svg>