<!DOCTYPE svg PUBLIC "-//W3C//DTD SVG 20010904//EN" "http://www.w3.org/TR/2001/REC-SVG-20010904/DTD/svg10.dtd">
<svg version="1.0" xmlns="http://www.w3.org/2000/svg" width="1177px" height="816px" viewBox="0 0 11770 8160" preserveAspectRatio="xMidYMid meet">
<g id="layer101" fill="#040304" stroke="none">
 <path d="M0 4080 l0 -4080 5885 0 5885 0 0 4080 0 4080 -5885 0 -5885 0 0 -4080z"/>
 </g>
<g id="layer102" fill="#ffffff" stroke="none">
 <path d="M0 4080 l0 -4080 5885 0 5885 0 0 4080 0 4080 -5885 0 -5885 0 0 -4080z m4345 3822 c65 -40 259 -258 503 -566 75 -94 224 -282 331 -417 108 -135 246 -310 307 -390 62 -79 163 -210 225 -290 277 -355 817 -1073 1042 -1387 48 -67 90 -122 92 -122 2 0 -12 35 -31 79 -71 164 -82 278 -31 329 21 20 38 27 86 30 107 8 183 -40 427 -266 78 -72 144 -138 147 -147 4 -8 11 -15 16 -15 6 0 -60 107 -146 237 -201 306 -227 349 -363 583 -62 107 -153 260 -203 339 -49 79 -150 252 -224 385 -74 133 -172 302 -216 376 -142 239 -279 553 -281 647 -1 47 3 58 24 75 29 23 80 19 120 -10 26 -19 267 -313 446 -545 59 -76 108 -136 110 -134 2 2 -1 19 -6 38 -6 18 -10 62 -10 96 0 50 4 67 23 88 27 32 96 44 151 25 75 -24 210 -152 484 -455 29 -32 55 -56 57 -53 3 3 -10 38 -29 79 -67 145 -82 249 -43 295 20 23 34 28 83 32 50 3 67 0 111 -25 67 -36 187 -132 287 -228 77 -75 102 -89 73 -43 -27 42 -60 166 -53 202 8 42 25 56 74 63 27 4 50 -1 80 -16 60 -31 198 -149 352 -302 74 -74 164 -162 199 -194 63 -59 63 -60 40 -20 -13 22 -26 42 -30 45 -14 11 -118 177 -133 214 -39 95 -12 139 85 138 85 -1 140 -30 417 -215 306 -205 442 -286 442 -264 0 3 -16 47 -36 98 -20 52 -39 119 -41 149 -5 50 -2 59 21 87 83 99 210 68 671 -160 233 -116 291 -143 595 -280 162 -73 199 -89 219 -93 8 -1 21 -9 29 -18 14 -13 13 -15 -4 -11 -10 3 -64 14 -119 25 -55 11 -122 28 -150 37 -101 32 -401 157 -587 244 -288 135 -454 199 -516 199 -49 0 -52 -2 -52 -25 0 -13 16 -68 36 -122 46 -126 49 -186 10 -219 -66 -58 -132 -26 -622 302 -194 130 -276 175 -291 160 -10 -10 21 -60 204 -326 96 -140 179 -266 185 -280 6 -16 6 -32 -1 -47 -17 -37 -68 -31 -122 14 -77 65 -287 261 -509 478 -208 203 -324 304 -336 292 -8 -8 13 -71 48 -142 17 -33 86 -150 154 -260 98 -160 154 -237 279 -385 279 -332 622 -759 735 -916 73 -100 140 -221 140 -253 0 -52 -49 -75 -106 -49 -24 11 -161 175 -420 504 -138 173 -323 430 -451 624 -170 258 -168 256 -363 470 -251 277 -451 450 -521 450 -23 0 -29 -5 -29 -21 0 -60 99 -285 191 -436 148 -241 241 -366 559 -748 70 -82 173 -211 230 -285 57 -74 138 -177 181 -227 127 -152 398 -519 427 -580 23 -48 5 -83 -43 -83 -50 0 -101 50 -248 244 -66 89 -173 226 -237 306 -199 248 -562 729 -657 870 -149 221 -772 928 -907 1030 -60 46 -112 61 -122 37 -23 -60 114 -376 228 -527 54 -72 61 -94 39 -121 -26 -33 -59 -19 -106 43 -22 29 -85 106 -139 171 -55 66 -165 203 -245 306 -204 261 -445 560 -450 556 -2 -2 6 -23 17 -47 11 -24 46 -101 77 -173 61 -141 111 -238 203 -391 32 -54 116 -202 187 -329 71 -126 172 -300 225 -385 53 -85 149 -247 214 -359 192 -334 463 -744 774 -1171 226 -310 337 -456 421 -555 57 -66 66 -106 30 -125 -45 -25 -63 -8 -353 329 -361 419 -745 819 -891 929 -111 83 -175 94 -175 29 0 -122 140 -383 428 -799 66 -95 170 -251 231 -347 62 -96 136 -205 166 -244 71 -91 72 -137 2 -137 -36 0 -59 24 -191 200 -55 74 -157 207 -227 295 -69 88 -184 239 -254 335 -71 96 -170 229 -220 295 -51 66 -134 179 -185 250 -178 250 -993 1340 -1080 1445 -20 25 -86 110 -145 190 -60 80 -181 237 -270 350 -88 113 -212 273 -274 355 -106 139 -394 497 -475 590 -39 45 -56 42 -31 -5 28 -54 10 -57 -28 -5 -44 59 -54 90 -37 110 17 20 39 19 75 -3z m3010 -2168 c49 -32 50 -104 0 -104 -37 0 -55 10 -71 42 -14 27 -14 32 1 54 18 28 36 30 70 8z m-5600 -284 c312 -35 657 -122 1086 -275 516 -185 938 -384 1569 -742 324 -184 826 -518 1234 -822 116 -86 222 -165 238 -176 15 -11 46 -35 68 -53 53 -45 51 -28 -5 32 -187 202 -260 338 -221 413 19 38 32 43 108 43 89 0 211 -45 437 -161 175 -90 250 -134 199 -116 -9 3 -90 27 -180 52 -89 26 -211 62 -270 81 -103 32 -178 43 -178 26 0 -18 66 -106 167 -224 175 -202 222 -273 232 -342 5 -34 17 -49 81 -104 568 -491 949 -867 1220 -1206 361 -450 491 -723 493 -1036 1 -153 -19 -209 -107 -295 -96 -95 -217 -139 -415 -151 -572 -35 -1713 433 -2859 1174 -612 395 -1142 814 -1595 1262 -301 296 -447 467 -617 723 -172 258 -199 471 -68 538 59 31 198 38 288 15 80 -20 263 -108 448 -214 135 -78 533 -330 600 -380 59 -45 33 -11 -94 120 -135 141 -284 321 -315 380 -37 73 -18 130 52 148 92 25 184 -17 502 -229 122 -81 229 -152 237 -156 8 -5 0 11 -18 35 -40 55 -45 120 -10 144 28 20 85 20 132 1 64 -27 198 -111 336 -211 74 -53 158 -112 185 -131 28 -18 60 -40 73 -49 31 -23 28 -10 -7 25 -16 16 -50 60 -77 96 -36 52 -48 78 -52 115 -4 42 -1 52 21 74 22 22 35 26 86 26 99 0 249 -67 551 -247 264 -157 280 -163 115 -43 -55 40 -118 88 -139 107 -22 18 -43 33 -47 33 -4 0 -104 65 -221 144 -423 285 -826 523 -1263 745 -394 201 -710 333 -1140 476 -528 176 -846 234 -1220 222 -204 -7 -309 -25 -452 -79 -125 -47 -196 -91 -273 -168 -127 -128 -180 -255 -188 -443 -8 -225 52 -473 182 -751 127 -271 388 -641 664 -942 664 -723 1522 -1353 2542 -1868 380 -192 819 -369 1023 -412 139 -29 316 -13 333 30 10 26 -24 72 -109 149 -58 53 -87 87 -94 112 -13 40 3 46 22 8 12 -23 61 -65 153 -132 62 -44 102 -103 102 -149 0 -31 -55 -89 -98 -104 -25 -9 -87 -13 -187 -12 -143 0 -156 2 -271 37 -559 169 -1339 561 -2022 1016 -881 588 -1540 1216 -1984 1891 -224 339 -367 728 -385 1045 -22 390 207 704 603 828 81 26 207 53 274 60 80 8 442 6 525 -3z"/>
 <path d="M3512 3928 c51 -62 233 -256 405 -431 171 -175 319 -334 328 -353 12 -25 13 -39 5 -54 -16 -29 -45 -42 -73 -31 -13 5 -127 80 -253 167 -625 431 -1038 679 -1246 748 -82 28 -173 34 -227 15 -29 -10 -31 -14 -31 -58 0 -94 56 -214 181 -386 139 -193 266 -342 454 -534 606 -619 1422 -1228 2305 -1721 898 -502 1694 -788 2130 -767 250 13 380 87 411 234 13 64 2 189 -26 298 -114 437 -719 1147 -1630 1915 -124 104 -151 122 -233 155 -103 41 -367 186 -692 380 -234 139 -409 233 -485 258 -45 16 -47 16 -33 -1 8 -9 38 -46 68 -82 30 -36 129 -142 221 -235 197 -200 212 -231 137 -274 -23 -13 -31 -12 -92 17 -85 40 -566 370 -815 559 -100 76 -108 68 -24 -21 144 -152 174 -215 118 -252 -49 -32 -100 -7 -370 181 -364 254 -571 385 -613 385 -7 0 29 -51 80 -112z"/>
 </g>

</svg>